<svg width="15" height="17" viewBox="0 0 15 17" fill="none" xmlns="http://www.w3.org/2000/svg">
<path d="M8.99805 17H2.65625C1.19155 17 0 15.8084 0 14.3438V5.3457C0 3.881 1.19155 2.68945 2.65625 2.68945H8.99805C10.4627 2.68945 11.6543 3.881 11.6543 5.3457V14.3438C11.6543 15.8084 10.4627 17 8.99805 17ZM2.65625 4.01758C1.92397 4.01758 1.32812 4.61342 1.32812 5.3457V14.3438C1.32812 15.076 1.92397 15.6719 2.65625 15.6719H8.99805C9.73033 15.6719 10.3262 15.076 10.3262 14.3438V5.3457C10.3262 4.61342 9.73033 4.01758 8.99805 4.01758H2.65625ZM14.3105 12.6836V2.65625C14.3105 1.19155 13.119 0 11.6543 0H4.2832C3.91641 0 3.61914 0.297272 3.61914 0.664062C3.61914 1.03085 3.91641 1.32812 4.2832 1.32812H11.6543C12.3866 1.32812 12.9824 1.92397 12.9824 2.65625V12.6836C12.9824 13.0504 13.2797 13.3477 13.6465 13.3477C14.0133 13.3477 14.3105 13.0504 14.3105 12.6836Z" fill="white"/>
</svg>
