<svg width="40" height="40" viewBox="0 0 40 40" fill="none" xmlns="http://www.w3.org/2000/svg">
<circle r="20" transform="matrix(-1 0 0 1 20 20)" fill="#FF8C00"/>
<path d="M20.269 5.21545C13.9682 5.2401 8.86662 10.2079 8.84131 16.3434C8.84131 17.5721 9.04499 18.7926 9.44391 19.958C9.74159 20.7513 10.625 21.1785 11.4542 20.9332C12.2556 20.634 12.6811 19.7808 12.4256 18.9828C12.0869 18.0744 11.9363 17.1109 11.9808 16.1462C12.1182 11.7148 15.9182 8.23039 20.4691 8.36418C25.0199 8.49796 28.5981 12.1983 28.4607 16.6297C28.3318 20.7783 24.9765 24.1477 20.7209 24.4C20.7209 24.4 19.1168 24.4951 18.319 24.5901C18.0249 24.6312 17.7333 24.6875 17.4452 24.7591C17.4042 24.8002 17.338 24.8002 17.2958 24.7603L17.2946 24.7591C17.2656 24.7227 17.2656 24.6711 17.2946 24.6347L17.5428 23.3156L19.0493 16.7177C19.2301 15.8939 18.6914 15.0829 17.8453 14.9069C16.9993 14.7309 16.1665 15.2555 15.9857 16.0793C15.9857 16.0793 12.4027 32.229 12.4027 32.3757C12.1978 33.1608 12.6847 33.9588 13.491 34.1584C13.4994 34.1607 13.509 34.163 13.5175 34.1642H13.6006C14.4057 34.3672 15.2277 33.8955 15.4349 33.1115C15.4386 33.0986 15.4422 33.0857 15.4446 33.0716C15.4422 33.047 15.4422 33.0223 15.4446 32.9989C15.4892 32.8087 15.9411 30.6599 15.9411 30.6599C16.2834 29.038 17.626 27.7952 19.306 27.544C19.6519 27.4924 21.1054 27.3973 21.1054 27.3973C27.3821 26.7883 31.963 21.3393 31.3363 15.2273C30.7651 9.65277 26.0226 5.36098 20.269 5.21545Z" fill="white"/>
<path d="M20.4388 31.0229C19.5737 30.8437 18.7279 31.3964 18.5478 32.2561C18.5457 32.2642 18.5447 32.2722 18.5427 32.2803C18.3555 33.135 18.8999 33.9797 19.7599 34.1659C19.7609 34.1659 19.7619 34.1659 19.7629 34.1669H19.8074C20.6493 34.3693 21.4961 33.8538 21.6985 33.0172C21.7005 33.0112 21.7015 33.0041 21.7035 32.9981V32.9105C21.8523 32.0467 21.2978 31.2182 20.4388 31.0229Z" fill="white"/>
</svg>
